Coordinates
version=1
nRows=16
nColumns=40
inDegrees=yes

Units are S.I. units (second, meters, Newtons, ...)
If the header above contains a line with 'inDegrees', this indicates whether rotational values are in degrees (yes) or radians (no).

endheader
time	pelvis_tilt	pelvis_list	pelvis_rotation	pelvis_tx	pelvis_ty	pelvis_tz	hip_flexion_r	hip_adduction_r	hip_rotation_r	knee_angle_r	knee_angle_r_beta	ankle_angle_r	subtalar_angle_r	mtp_angle_r	hip_flexion_l	hip_adduction_l	hip_rotation_l	knee_angle_l	knee_angle_l_beta	ankle_angle_l	subtalar_angle_l	mtp_angle_l	lumbar_extension	lumbar_bending	lumbar_rotation	arm_flex_r	arm_add_r	arm_rot_r	elbow_flex_r	pro_sup_r	wrist_flex_r	wrist_dev_r	arm_flex_l	arm_add_l	arm_rot_l	elbow_flex_l	pro_sup_l	wrist_flex_l	wrist_dev_l
      3.51500000	    -21.15712377	      0.66636400	     -3.74032262	     -0.31588517	      0.90829437	     -1.14974646	      8.76231996	     -0.77349264	      7.39636886	     69.85012216	      1.21911461	    -10.01118130	      0.00000000	      0.00000000	     55.28077320	      2.25044343	     -1.44647004	     62.43139417	      1.08963338	     16.56260413	      0.00000000	      0.00000000	    -10.15307190	     -5.93399266	      6.79060593	     89.93760534	     -2.51810747	      9.99528708	     42.34114894	     82.58991855	      0.00000000	      0.00000000	     89.95649257	     -6.83370758	     22.70624552	     43.72076916	     81.17253430	      0.00000000	      0.00000000
      3.52000000	    -21.02392563	      0.57638159	     -3.63851891	     -0.31470967	      0.90980797	     -1.14963136	      8.70748178	     -0.71462588	      7.13518499	     69.80412328	      1.21831178	    -10.00094668	      0.00000000	      0.00000000	     54.88508940	      2.15136527	     -1.53513256	     62.09455796	      1.08375448	     16.46968651	      0.00000000	      0.00000000	    -10.09508453	     -5.84007393	      6.64295743	     89.93567413	     -2.42043238	      9.99193826	     42.01322975	     82.60359335	      0.00000000	      0.00000000	     89.95575902	     -6.85747146	     22.87925918	     43.50610335	     81.26815716	      0.00000000	      0.00000000
      3.52500000	    -20.74044393	      0.60864644	     -3.50834880	     -0.31350825	      0.91122186	     -1.14977288	      8.45560723	     -0.81779986	      6.84674882	     69.68557307	      1.21624269	     -9.98618492	      0.00000000	      0.00000000	     54.38294218	      2.28868583	     -1.50064016	     61.83323357	      1.07919351	     16.34690852	      0.00000000	      0.00000000	    -10.14142485	     -5.86630967	      6.37266628	     89.93429939	     -2.15551061	      9.86929195	     41.55987651	     82.63348910	      0.00000000	      0.00000000	     89.95534389	     -6.99354822	     23.20003723	     43.20630223	     81.50276125	      0.00000000	      0.00000000
      3.53000000	    -20.45364566	      0.56499303	     -3.33972554	     -0.31248596	      0.91283969	     -1.15000647	      8.25602288	     -0.84748161	      6.50547616	     69.66956031	      1.21596322	     -9.93841851	      0.00000000	      0.00000000	     53.87129920	      2.36529982	     -1.46566695	     61.53170017	      1.07393076	     16.19523313	      0.00000000	      0.00000000	    -10.25611963	     -5.79311241	      6.06602822	     89.93275606	     -1.90296228	      9.67032040	     41.22909273	     82.66795688	      0.00000000	      0.00000000	     89.95478001	     -7.16057798	     23.42570754	     43.10490828	     81.81902009	      0.00000000	      0.00000000
      3.53500000	    -20.30247897	      0.49737695	     -3.30295012	     -0.31172292	      0.91412141	     -1.14997013	      8.27756018	     -0.78185662	      6.33455336	     69.78339399	      1.21794999	     -9.93273918	      0.00000000	      0.00000000	     53.55173251	      2.28038664	     -1.54110360	     61.33612906	      1.07051740	     16.13412192	      0.00000000	      0.00000000	    -10.23871461	     -5.73111037	      5.99634980	     89.93084422	     -1.84465648	      9.66064616	     41.02954628	     82.67906725	      0.00000000	      0.00000000	     89.95403296	     -7.17042579	     23.48682674	     43.05455498	     81.88889586	      0.00000000	      0.00000000
      3.54000000	    -20.12342636	      0.40872624	     -3.19999234	     -0.31085396	      0.91555043	     -1.15003000	      8.23761305	     -0.72221582	      6.10179034	     69.81890024	      1.21856969	     -9.90421860	      0.00000000	      0.00000000	     53.16331713	      2.23759136	     -1.57737075	     61.06423892	      1.06577202	     16.00862888	      0.00000000	      0.00000000	    -10.23276727	     -5.62526276	      5.88818620	     89.92807370	     -1.76089313	      9.62784459	     40.71361446	     82.68589564	      0.00000000	      0.00000000	     89.95349781	     -7.16155805	     23.61545068	     42.90973558	     81.96724576	      0.00000000	      0.00000000
      3.54500000	    -19.76564424	      0.50075673	     -3.04673199	     -0.30971030	      0.91726397	     -1.15034290	      7.91947411	     -0.91993088	      5.77578751	     69.70235811	      1.21653565	     -9.94411884	      0.00000000	      0.00000000	     52.54863138	      2.46323075	     -1.54099399	     60.72340944	      1.05982343	     15.90100611	      0.00000000	      0.00000000	    -10.38583714	     -5.69395464	      5.51630638	     89.92711682	     -1.34162888	      9.38331233	     40.13711887	     82.70144682	      0.00000000	      0.00000000	     89.95303685	     -7.36063484	     23.91247534	     42.65409504	     82.19782077	      0.00000000	      0.00000000
      3.55000000	    -19.52345044	      0.48741933	     -2.93967551	     -0.30860788	      0.91868403	     -1.15042344	      7.74356147	     -0.91557215	      5.60119396	     69.64559068	      1.21554487	     -9.82827484	      0.00000000	      0.00000000	     52.07287876	      2.50960504	     -1.57642745	     60.43337933	      1.05476145	     15.76500532	      0.00000000	      0.00000000	    -10.41952649	     -5.65960922	      5.35039031	     89.92485770	     -1.19668881	      9.31876183	     39.72326167	     82.76124056	      0.00000000	      0.00000000	     89.95217423	     -7.44923533	     24.13467278	     42.54255397	     82.44582067	      0.00000000	      0.00000000
      3.55500000	    -19.35776733	      0.37254333	     -2.85303845	     -0.30762220	      0.91988624	     -1.15047902	      7.73465305	     -0.80517849	      5.37577088	     69.78125688	      1.21791269	     -9.85221574	      0.00000000	      0.00000000	     51.72374672	      2.41982137	     -1.62043125	     60.24046564	      1.05139447	     15.72532006	      0.00000000	      0.00000000	    -10.40352197	     -5.54365535	      5.22550632	     89.92220872	     -1.12415150	      9.30174414	     39.46718674	     82.77431282	      0.00000000	      0.00000000	     89.95141153	     -7.44164845	     24.20436302	     42.47923253	     82.51106956	      0.00000000	      0.00000000
      3.56000000	    -19.18230369	      0.30133368	     -2.72989098	     -0.30676049	      0.92120798	     -1.15061360	      7.71024277	     -0.75797134	      5.15506678	     69.84513454	      1.21902756	     -9.85054881	      0.00000000	      0.00000000	     51.36842402	      2.41954723	     -1.60884651	     60.03412391	      1.04779313	     15.66262892	      0.00000000	      0.00000000	    -10.38970157	     -5.44715967	      5.09576439	     89.91870729	     -1.01216574	      9.30490221	     39.14147138	     82.78132778	      0.00000000	      0.00000000	     89.95062068	     -7.41294060	     24.32587626	     42.35641418	     82.57195791	      0.00000000	      0.00000000
      3.56500000	    -18.92910800	      0.22380663	     -2.58206754	     -0.30570442	      0.92265071	     -1.15078193	      7.55855482	     -0.71482758	      4.85344659	     69.88340964	      1.21969559	     -9.84221536	      0.00000000	      0.00000000	     50.88557823	      2.46268334	     -1.53519403	     59.73335218	      1.04254367	     15.55553708	      0.00000000	      0.00000000	    -10.43582766	     -5.34932844	      4.86436854	     89.91718071	     -0.85345066	      9.33882890	     38.62712809	     82.79407392	      0.00000000	      0.00000000	     89.94984343	     -7.43969962	     24.52964064	     42.11830526	     82.65849782	      0.00000000	      0.00000000
      3.57000000	    -18.53962894	      0.23779112	     -2.38149264	     -0.30438872	      0.92434815	     -1.15114487	      7.18200969	     -0.86050158	      4.45328273	     69.71702917	      1.21679170	     -9.83796275	      0.00000000	      0.00000000	     50.23758763	      2.69870044	     -1.33740804	     59.43554628	      1.03734598	     15.50955201	      0.00000000	      0.00000000	    -10.60856353	     -5.32008256	      4.55600695	     89.91509192	     -0.55526331	      9.18015870	     38.03488564	     82.83046756	      0.00000000	      0.00000000	     89.94923286	     -7.61640919	     24.95638964	     41.91727751	     82.93868044	      0.00000000	      0.00000000
      3.57500000	    -18.31110159	      0.20028300	     -2.24300219	     -0.30337700	      0.92570428	     -1.15135755	      7.08069135	     -0.85632043	      4.18003446	     69.77606975	      1.21782216	     -9.91280611	      0.00000000	      0.00000000	     49.78089282	      2.77999342	     -1.25826083	     59.13518485	      1.03210368	     15.42124003	      0.00000000	      0.00000000	    -10.64773746	     -5.24515183	      4.34568525	     89.91254532	     -0.35084145	      9.15172583	     37.62644755	     82.85293617	      0.00000000	      0.00000000	     89.94834806	     -7.65389246	     25.14775307	     41.74822677	     83.07995937	      0.00000000	      0.00000000
      3.58000000	    -18.13878889	      0.14302300	     -2.18044085	     -0.30261973	      0.92704359	     -1.15135337	      7.09938821	     -0.78884056	      4.05364302	     69.92385532	      1.22040150	     -9.93001902	      0.00000000	      0.00000000	     49.44040243	      2.75020064	     -1.26878939	     58.92687024	      1.02846790	     15.34897447	      0.00000000	      0.00000000	    -10.65128484	     -5.18969459	      4.28473678	     89.90874008	     -0.30249308	      9.17304971	     37.39764238	     82.86377883	      0.00000000	      0.00000000	     89.94756503	     -7.61424043	     25.22361453	     41.70521813	     83.13526480	      0.00000000	      0.00000000
      3.58500000	    -17.86723985	      0.18723169	     -2.05586088	     -0.30144208	      0.92849594	     -1.15158426	      6.89847932	     -0.85748348	      3.81193885	     69.85206591	      1.21914854	     -9.94280058	      0.00000000	      0.00000000	     48.90888124	      2.91460663	     -1.18594883	     58.56139309	      1.02208912	     15.23520275	      0.00000000	      0.00000000	    -10.66778633	     -5.22007526	      4.12038708	     89.90718312	     -0.15384734	      9.22015467	     36.76278876	     82.89744801	      0.00000000	      0.00000000	     89.94649965	     -7.58921400	     25.58550365	     41.35125749	     83.28739977	      0.00000000	      0.00000000
      3.59000000	    -17.62840931	      0.08339069	     -1.94393578	     -0.30050370	      0.92991547	     -1.15169932	      6.83809341	     -0.75615725	      3.62775077	     70.02910178	      1.22223840	     -9.98332480	      0.00000000	      0.00000000	     48.48590201	      2.90651593	     -1.11531433	     58.35104385	      1.01841784	     15.13705293	      0.00000000	      0.00000000	    -10.74042137	     -5.09679558	      4.03229380	     89.90344397	     -0.09378735	      9.23034308	     36.50511808	     82.91443955	      0.00000000	      0.00000000	     89.94540600	     -7.54497278	     25.72346067	     41.26836333	     83.35220650	      0.00000000	      0.00000000
